<?xml version="1.0" encoding="UTF-8"?>
<svg xmlns="http://www.w3.org/2000/svg" viewBox="0 0 32 32" width="32" height="32">
<rect width="32" height="32" rx="6" fill="#FAFAF7"></rect>
<path d="M8.45 26.29L8.45 26.29Q7.70 25.73 7.29 24.68Q6.88 23.63 6.91 22.73L6.91 22.73Q6.88 21.00 7.21 19.15Q7.53 17.30 8.06 15.70L8.06 15.70Q8.59 14.19 9.26 12.64Q9.94 11.08 10.58 10.10L10.58 10.10Q11.45 8.62 12.36 7.72Q13.27 6.83 13.74 6.55L13.74 6.55Q14.53 6.16 15.62 5.95Q16.71 5.74 17.75 5.96L17.75 5.96Q18.48 6.16 19.19 6.52Q19.90 6.88 20.44 7.42L20.44 7.42Q21.08 7.98 21.08 8.65L21.08 8.65Q21.08 9.07 20.69 9.46Q20.30 9.85 19.82 9.99Q19.34 10.13 19.09 9.82L19.09 9.82Q18.73 9.26 18.39 8.97Q18.06 8.68 17.69 8.54L17.69 8.54Q17.24 8.26 16.33 8.38Q15.42 8.51 14.64 9.15L14.64 9.15Q14.33 9.40 13.79 9.98Q13.24 10.55 12.82 11.31L12.82 11.31Q12.04 12.60 11.49 13.93Q10.94 15.26 10.52 16.82L10.52 16.82Q10.33 17.47 10.10 18.41Q9.88 19.34 9.70 20.27Q9.52 21.19 9.46 21.89L9.46 21.89Q9.35 23.35 9.74 23.89Q10.13 24.44 11.36 24.16L11.36 24.16Q12.43 23.91 13.55 23.12Q14.67 22.34 15.54 21.05L15.54 21.05Q16.04 20.10 16.36 19.32Q16.68 18.53 16.70 18.07Q16.71 17.61 16.21 17.64L16.21 17.64Q15.06 17.66 14.37 17.55Q13.69 17.44 13.44 16.99L13.44 16.99Q13.07 16.91 13.06 16.38Q13.04 15.84 13.58 15.51L13.58 15.51Q14.05 15.26 14.89 15.20Q15.73 15.14 16.61 15.24Q17.50 15.34 18.03 15.65L18.03 15.65Q18.64 15.96 18.88 16.56Q19.12 17.16 19.13 17.83Q19.15 18.50 19.04 19.09L19.04 19.09Q18.78 20.07 18.35 21.00Q17.92 21.92 17.19 22.87L17.19 22.87Q16.77 23.46 16.04 24.10Q15.31 24.75 14.51 25.27Q13.72 25.78 13.02 26.09L13.02 26.09Q11.90 26.60 10.68 26.82Q9.46 27.04 8.45 26.29ZM23.26 26.71L23.26 26.71Q22.14 26.43 21.46 25.55Q20.77 24.66 20.35 23.43L20.35 23.43Q20.32 23.07 20.34 22.42Q20.35 21.78 20.41 21.22Q20.46 20.66 20.52 20.58L20.52 20.58Q20.60 20.52 20.60 20.24L20.60 20.24Q20.58 20.13 20.65 19.86Q20.72 19.60 20.80 19.32L20.80 19.32Q20.94 18.98 20.94 18.77Q20.94 18.56 20.91 18.45L20.91 18.45Q20.91 18.45 21.00 18.27Q21.08 18.08 21.19 17.97L21.19 17.97Q21.36 17.80 21.35 17.64Q21.33 17.47 21.33 17.47L21.33 17.47Q21.30 17.36 21.39 17.16Q21.47 16.96 21.56 16.85L21.56 16.85Q21.61 16.80 21.71 16.61Q21.81 16.43 21.81 16.43L21.81 16.43Q21.81 16.35 21.93 15.98Q22.06 15.62 22.23 15.19Q22.40 14.75 22.55 14.39Q22.70 14.02 22.79 13.91L22.79 13.91L22.79 13.86Q22.90 13.58 23.10 13.27L23.10 13.27Q23.12 13.13 23.24 12.81Q23.35 12.48 23.49 12.18L23.49 12.18Q23.80 11.50 24.26 10.65Q24.72 9.80 25.25 8.94Q25.78 8.09 26.27 7.40Q26.76 6.72 27.13 6.38L27.13 6.38Q27.60 5.85 28.09 5.61Q28.58 5.37 29.00 5.79L29.00 5.79Q29.20 5.99 29.34 6.37Q29.48 6.74 29.47 7.07Q29.45 7.39 29.23 7.42L29.23 7.42Q29.03 7.53 28.70 8.05Q28.36 8.56 27.95 9.26Q27.55 9.96 27.16 10.71Q26.76 11.45 26.43 12.04L26.43 12.04Q26.06 12.85 25.76 13.45Q25.45 14.05 25.45 14.05L25.45 14.05Q25.42 14.14 25.39 14.19Q25.36 14.25 25.34 14.30L25.34 14.30Q24.92 15.17 24.64 15.89Q24.36 16.60 24.08 17.38L24.08 17.38Q23.91 17.58 23.88 17.78Q23.85 17.97 23.85 17.97L23.85 17.97Q23.80 17.94 23.77 18.10Q23.74 18.25 23.66 18.45L23.66 18.45Q23.52 18.56 23.49 18.80Q23.46 19.04 23.46 19.26L23.46 19.26Q23.26 19.76 23.10 20.48Q22.93 21.19 22.86 21.85Q22.79 22.51 22.82 22.87L22.82 22.87Q22.93 23.82 23.68 24.19L23.68 24.19Q23.99 24.33 24.24 24.43Q24.50 24.52 24.69 24.52L24.69 24.52Q24.92 24.55 25.27 24.51Q25.62 24.47 26.23 24.36L26.23 24.36L26.20 24.36Q26.57 24.30 26.97 24.20Q27.38 24.10 27.74 24.02L27.74 24.02Q28.08 23.96 28.39 23.89Q28.70 23.82 28.86 23.77L28.86 23.77Q29.48 23.60 29.86 23.49Q30.24 23.38 30.38 23.49L30.38 23.49Q30.52 23.60 30.68 23.91Q30.85 24.22 30.77 24.47L30.77 24.47Q30.71 24.61 30.21 25.04Q29.70 25.48 29.06 25.91Q28.42 26.34 27.88 26.51L27.88 26.51Q27.32 26.76 26.39 26.86Q25.45 26.96 24.58 26.90Q23.71 26.85 23.26 26.71Z" fill="#111111"></path>
<path d="M35.30 23.54L35.30 23.54Q34.71 23.74 34.32 23.73Q33.92 23.71 33.45 23.38L33.45 23.38Q32.89 22.82 33.07 22.24Q33.25 21.67 34.06 21.11L34.06 21.11Q34.62 20.77 34.89 20.76Q35.16 20.74 35.69 20.97L35.69 20.97Q36.64 21.56 36.53 22.27Q36.42 22.98 35.30 23.54Z" fill="#0D47A1"></path>
</svg>