<?xml version="1.0" encoding="UTF-8"?>
<svg xmlns="http://www.w3.org/2000/svg" viewBox="0 0 200 40" width="200" height="40">
<path d="M9.72 31.66L9.72 31.66Q8.75 30.94 8.23 29.59Q7.71 28.24 7.74 27.08L7.74 27.08Q7.71 24.85 8.12 22.48Q8.54 20.10 9.22 18.05L9.22 18.05Q9.90 16.10 10.77 14.11Q11.63 12.11 12.46 10.85L12.46 10.85Q13.58 8.94 14.75 7.79Q15.92 6.64 16.53 6.28L16.53 6.28Q17.54 5.77 18.94 5.50Q20.34 5.23 21.68 5.52L21.68 5.52Q22.61 5.77 23.53 6.24Q24.45 6.71 25.13 7.39L25.13 7.39Q25.96 8.11 25.96 8.98L25.96 8.98Q25.96 9.52 25.46 10.02Q24.95 10.52 24.34 10.70Q23.73 10.88 23.40 10.49L23.40 10.49Q22.94 9.77 22.50 9.39Q22.07 9.01 21.60 8.83L21.60 8.83Q21.03 8.47 19.86 8.63Q18.69 8.80 17.68 9.62L17.68 9.62Q17.28 9.95 16.58 10.69Q15.88 11.42 15.34 12.40L15.34 12.40Q14.33 14.05 13.63 15.76Q12.93 17.47 12.39 19.49L12.39 19.49Q12.14 20.32 11.85 21.52Q11.56 22.73 11.33 23.92Q11.09 25.10 11.02 26.00L11.02 26.00Q10.88 27.88 11.38 28.58Q11.88 29.28 13.47 28.92L13.47 28.92Q14.84 28.60 16.28 27.59Q17.72 26.58 18.83 24.92L18.83 24.92Q19.48 23.70 19.89 22.69Q20.31 21.68 20.33 21.09Q20.34 20.50 19.70 20.53L19.70 20.53Q18.22 20.57 17.34 20.42Q16.46 20.28 16.13 19.70L16.13 19.70Q15.66 19.60 15.65 18.91Q15.63 18.23 16.31 17.80L16.31 17.80Q16.92 17.47 18.00 17.40Q19.08 17.33 20.22 17.45Q21.35 17.58 22.04 17.98L22.04 17.98Q22.83 18.37 23.13 19.15Q23.44 19.92 23.46 20.78Q23.48 21.65 23.33 22.40L23.33 22.40Q23.01 23.66 22.45 24.85Q21.89 26.04 20.96 27.26L20.96 27.26Q20.42 28.02 19.48 28.85Q18.54 29.68 17.52 30.34Q16.49 31.01 15.59 31.40L15.59 31.40Q14.15 32.05 12.59 32.34Q11.02 32.63 9.72 31.66ZM26.25 29.24L26.25 29.24Q26.10 28.96 25.62 28.67Q25.13 28.38 25.13 28.24L25.13 28.24Q25.13 28.09 24.97 27.79Q24.81 27.48 24.66 27.34L24.66 27.34Q24.48 27.12 24.77 26.27Q25.06 25.43 25.64 24.20Q26.21 22.98 26.90 21.72L26.90 21.72Q27.18 21.43 27.47 20.96Q27.76 20.50 27.90 20.35L27.90 20.35Q27.90 20.21 28.01 20.08Q28.12 19.96 28.26 19.96L28.26 19.96L28.55 19.38Q28.62 19.24 29.00 18.80Q29.38 18.37 29.92 17.85Q30.46 17.33 31.02 16.86Q31.58 16.39 31.94 16.18L31.94 16.18Q32.69 15.67 33.50 15.71Q34.31 15.74 34.89 16.21L34.89 16.21Q35.00 16.32 35.37 16.64Q35.75 16.97 36.24 17.36Q36.72 17.76 37.08 18.08L37.08 18.08L38.42 19.27L37.80 21.07Q37.34 22.51 37.55 23.59Q37.77 24.67 38.24 25.46L38.24 25.46Q38.60 26.22 39.53 26.36L39.53 26.36Q39.82 26.40 40.07 26.58Q40.32 26.76 40.32 27.16L40.32 27.16Q40.32 28.02 40.02 28.40Q39.71 28.78 39.35 28.85L39.35 28.85Q38.16 28.99 37.08 28.60Q36.00 28.20 35.14 26.54L35.14 26.54Q35.00 26.33 34.76 25.73Q34.53 25.14 34.49 24.96L34.49 24.96Q34.35 25.14 34.11 25.41Q33.88 25.68 33.66 25.90L33.66 25.90Q31.11 28.49 29.29 29.26Q27.47 30.04 26.25 29.24ZM28.23 26.26L28.23 26.26Q28.48 26.29 29.02 25.99Q29.56 25.68 30.46 24.96L30.46 24.96Q31.68 23.92 32.48 23.23Q33.27 22.55 34.02 21.47L34.02 21.47L34.82 20.17Q34.46 19.34 34.17 19.09Q33.88 18.84 33.59 18.84L33.59 18.84Q32.87 18.84 31.77 20.15Q30.68 21.47 29.20 23.99L29.20 23.99Q28.73 24.78 28.48 25.52Q28.23 26.26 28.23 26.26ZM43.35 30.22L43.35 30.22Q42.12 29.71 41.57 29.15Q41.01 28.60 41.12 28.16L41.12 28.16Q41.19 27.95 41.37 27.77Q41.55 27.59 42.18 27.61Q42.81 27.62 44.14 27.95L44.14 27.95Q44.75 27.95 45.31 27.88Q45.87 27.80 46.23 27.62L46.23 27.62Q46.41 27.55 46.34 27.43Q46.26 27.30 46.08 27.16L46.08 27.16Q45.80 26.87 45.44 26.87L45.44 26.87Q45.36 26.69 45.13 26.51Q44.90 26.33 44.57 26.11L44.57 26.11Q43.78 25.46 43.13 24.96Q42.48 24.46 42.63 24.20L42.63 24.20L42.63 24.02Q42.38 24.02 42.16 23.32Q41.94 22.62 41.94 22.04L41.94 22.04Q41.94 20.96 42.61 19.92Q43.28 18.88 44.03 18.08L44.03 18.08Q45.04 17.11 46.30 16.21Q47.56 15.31 49.22 14.88L49.22 14.88Q49.72 14.77 50.37 14.77Q51.02 14.77 51.30 14.95L51.30 14.95Q51.59 14.77 52.02 15.04Q52.46 15.31 52.89 15.78Q53.32 16.25 53.54 16.72L53.54 16.72Q53.54 17.15 53.52 17.78Q53.50 18.41 53.43 18.88Q53.36 19.34 53.10 19.34L53.10 19.34Q53.10 19.34 53.01 19.36Q52.92 19.38 52.92 19.56L52.92 19.56Q52.92 19.92 52.38 20.39L52.38 20.39Q51.70 20.86 51.09 21.14Q50.48 21.43 50.15 21.18L50.15 21.18Q49.94 21.04 49.76 20.89Q49.58 20.75 49.43 20.53L49.43 20.53Q49.43 20.53 49.34 20.37Q49.25 20.21 49.25 20.06L49.25 20.06Q49.25 19.92 49.36 19.79Q49.47 19.67 49.47 19.67L49.47 19.67Q50.19 18.98 50.46 18.43Q50.73 17.87 50.73 17.62L50.73 17.62Q50.73 17.29 50.26 17.29L50.26 17.29Q50.08 17.29 49.49 17.58Q48.89 17.87 48.24 18.28Q47.60 18.70 47.24 19.02L47.24 19.02Q47.09 19.27 47.04 19.34Q46.98 19.42 46.84 19.42L46.84 19.42Q46.84 19.24 46.55 19.58Q46.26 19.92 45.90 20.42Q45.54 20.93 45.33 21.22L45.33 21.22Q45.29 21.54 45.17 21.81Q45.04 22.08 45.08 22.37L45.08 22.37Q45.11 22.73 45.44 23.05Q45.76 23.38 46.37 23.88L46.37 23.88Q47.63 24.82 48.26 25.36Q48.89 25.90 49.14 26.22Q49.40 26.54 49.47 26.87L49.47 26.87Q50.08 27.98 49.61 28.79Q49.14 29.60 48.17 30.04L48.17 30.04Q47.81 30.22 46.91 30.38Q46.01 30.54 45.02 30.52Q44.03 30.50 43.35 30.22ZM57.42 32.20L57.42 32.20Q55.98 31.84 55.10 30.70Q54.22 29.57 53.68 27.98L53.68 27.98Q53.64 27.52 53.66 26.69Q53.68 25.86 53.75 25.14Q53.82 24.42 53.90 24.31L53.90 24.31Q54.00 24.24 54.00 23.88L54.00 23.88Q53.97 23.74 54.06 23.39Q54.15 23.05 54.26 22.69L54.26 22.69Q54.44 22.26 54.44 21.99Q54.44 21.72 54.40 21.58L54.40 21.58Q54.40 21.58 54.51 21.34Q54.62 21.11 54.76 20.96L54.76 20.96Q54.98 20.75 54.96 20.53Q54.94 20.32 54.94 20.32L54.94 20.32Q54.90 20.17 55.01 19.92Q55.12 19.67 55.23 19.52L55.23 19.52Q55.30 19.45 55.43 19.22Q55.55 18.98 55.55 18.98L55.55 18.98Q55.55 18.88 55.71 18.41Q55.88 17.94 56.09 17.38Q56.31 16.82 56.51 16.36Q56.70 15.89 56.81 15.74L56.81 15.74L56.81 15.67Q56.96 15.31 57.21 14.92L57.21 14.92Q57.24 14.74 57.39 14.32Q57.53 13.91 57.71 13.51L57.71 13.51Q58.11 12.65 58.70 11.55Q59.30 10.45 59.98 9.35Q60.66 8.26 61.29 7.37Q61.92 6.49 62.39 6.06L62.39 6.06Q63.00 5.38 63.63 5.07Q64.26 4.76 64.80 5.30L64.80 5.30Q65.06 5.56 65.24 6.04Q65.42 6.53 65.40 6.94Q65.38 7.36 65.09 7.39L65.09 7.39Q64.84 7.54 64.41 8.20Q63.98 8.87 63.45 9.77Q62.93 10.67 62.43 11.62Q61.92 12.58 61.49 13.33L61.49 13.33Q61.02 14.38 60.63 15.15Q60.23 15.92 60.23 15.92L60.23 15.92Q60.20 16.03 60.16 16.10Q60.12 16.18 60.09 16.25L60.09 16.25Q59.55 17.36 59.19 18.28Q58.83 19.20 58.47 20.21L58.47 20.21Q58.25 20.46 58.22 20.71Q58.18 20.96 58.18 20.96L58.18 20.96Q58.11 20.93 58.07 21.13Q58.04 21.32 57.93 21.58L57.93 21.58Q57.75 21.72 57.71 22.03Q57.68 22.33 57.68 22.62L57.68 22.62Q57.42 23.27 57.21 24.19Q56.99 25.10 56.90 25.95Q56.81 26.80 56.85 27.26L56.85 27.26Q56.99 28.49 57.96 28.96L57.96 28.96Q58.36 29.14 58.68 29.26Q59.01 29.39 59.26 29.39L59.26 29.39Q59.55 29.42 60.00 29.37Q60.45 29.32 61.24 29.17L61.24 29.17L61.20 29.17Q61.67 29.10 62.19 28.97Q62.72 28.85 63.18 28.74L63.18 28.74Q63.62 28.67 64.01 28.58Q64.41 28.49 64.62 28.42L64.62 28.42Q65.42 28.20 65.90 28.06Q66.39 27.91 66.57 28.06L66.57 28.06Q66.75 28.20 66.96 28.60Q67.18 28.99 67.07 29.32L67.07 29.32Q67 29.50 66.35 30.05Q65.70 30.61 64.88 31.17Q64.05 31.73 63.36 31.94L63.36 31.94Q62.64 32.27 61.44 32.39Q60.23 32.52 59.12 32.45Q58.00 32.38 57.42 32.20ZM70.24 29.24L70.24 29.24Q70.10 28.96 69.61 28.67Q69.12 28.38 69.12 28.24L69.12 28.24Q69.12 28.09 68.96 27.79Q68.80 27.48 68.66 27.34L68.66 27.34Q68.48 27.12 68.76 26.27Q69.05 25.43 69.63 24.20Q70.20 22.98 70.89 21.72L70.89 21.72Q71.18 21.43 71.46 20.96Q71.75 20.50 71.90 20.35L71.90 20.35Q71.90 20.21 72.00 20.08Q72.11 19.96 72.26 19.96L72.26 19.96L72.54 19.38Q72.62 19.24 72.99 18.80Q73.37 18.37 73.91 17.85Q74.45 17.33 75.01 16.86Q75.57 16.39 75.93 16.18L75.93 16.18Q76.68 15.67 77.49 15.71Q78.30 15.74 78.88 16.21L78.88 16.21Q78.99 16.32 79.37 16.64Q79.74 16.97 80.23 17.36Q80.72 17.76 81.08 18.08L81.08 18.08L82.41 19.27L81.80 21.07Q81.33 22.51 81.54 23.59Q81.76 24.67 82.23 25.46L82.23 25.46Q82.59 26.22 83.52 26.36L83.52 26.36Q83.81 26.40 84.06 26.58Q84.32 26.76 84.32 27.16L84.32 27.16Q84.32 28.02 84.01 28.40Q83.70 28.78 83.34 28.85L83.34 28.85Q82.16 28.99 81.08 28.60Q80.00 28.20 79.13 26.54L79.13 26.54Q78.99 26.33 78.75 25.73Q78.52 25.14 78.48 24.96L78.48 24.96Q78.34 25.14 78.11 25.41Q77.87 25.68 77.66 25.90L77.66 25.90Q75.10 28.49 73.28 29.26Q71.46 30.04 70.24 29.24ZM72.22 26.26L72.22 26.26Q72.47 26.29 73.01 25.99Q73.55 25.68 74.45 24.96L74.45 24.96Q75.68 23.92 76.47 23.23Q77.26 22.55 78.02 21.47L78.02 21.47L78.81 20.17Q78.45 19.34 78.16 19.09Q77.87 18.84 77.58 18.84L77.58 18.84Q76.86 18.84 75.77 20.15Q74.67 21.47 73.19 23.99L73.19 23.99Q72.72 24.78 72.47 25.52Q72.22 26.26 72.22 26.26ZM102.21 29.14L102.21 29.14Q101.96 29.06 101.42 28.67Q100.88 28.27 100.46 27.48Q100.05 26.69 100.08 25.43L100.08 25.43Q100.12 24.35 100.25 23.90Q100.37 23.45 100.12 23.41L100.12 23.41Q99.83 23.38 98.77 24.22Q97.71 25.07 95.91 26.98L95.91 26.98Q95.48 27.34 94.95 27.86Q94.43 28.38 93.91 28.63Q93.39 28.88 92.99 28.52L92.99 28.52L92.63 28.20Q92.38 27.98 92.20 27.62Q92.02 27.26 92.09 27.01L92.09 27.01L93.10 24.20Q93.71 22.84 93.80 22.49Q93.89 22.15 93.64 22.22L93.64 22.22Q93.42 22.26 93.03 22.60Q92.63 22.94 92.49 23.16L92.49 23.16Q92.34 23.16 92.11 23.45Q91.88 23.74 91.66 23.95L91.66 23.95Q91.44 24.17 90.90 24.76Q90.36 25.36 89.75 26.00L89.75 26.00Q89.28 26.44 88.67 27.16Q88.06 27.88 87.59 28.45Q87.12 29.03 87.02 29.03L87.02 29.03Q86.37 28.99 85.85 28.60Q85.32 28.20 85.14 27.62L85.14 27.62Q84.93 27.23 85.11 26.17Q85.29 25.10 85.79 22.76L85.79 22.76Q85.97 22.04 86.13 21.56Q86.30 21.07 86.55 20.48Q86.80 19.88 87.20 18.91L87.20 18.91Q87.38 18.41 87.34 17.96Q87.30 17.51 87.27 17.22L87.27 17.22Q87.27 16.68 87.61 16.36Q87.95 16.03 88.38 15.91Q88.82 15.78 89.07 15.85L89.07 15.85Q90.08 15.96 90.44 16.57Q90.80 17.18 90.83 17.76L90.83 17.76Q90.87 18.30 90.69 18.73Q90.51 19.16 90.40 19.45L90.40 19.45L90.00 20.42Q89.43 21.65 89.36 21.94Q89.28 22.22 89.28 22.37L89.28 22.37Q89.32 22.48 89.61 22.26Q89.90 22.04 90.31 21.67Q90.72 21.29 91.08 21L91.08 21Q92.02 20.17 93.21 19.36Q94.40 18.55 95.12 18.34L95.12 18.34Q95.73 18.44 96.25 18.95Q96.77 19.45 96.92 19.81L96.92 19.81Q97.10 20.35 96.97 20.78Q96.84 21.22 96.77 21.58L96.77 21.58Q96.74 21.72 96.63 22.12Q96.52 22.51 96.41 22.85Q96.30 23.20 96.30 23.20L96.30 23.20Q96.30 23.20 96.77 22.73Q97.24 22.26 97.82 21.90L97.82 21.90Q99.62 20.53 100.68 20.15Q101.74 19.78 102.50 20.78L102.50 20.78Q102.93 21.18 103.05 21.86Q103.18 22.55 103.18 23.70L103.18 23.70Q103.25 24.42 103.34 25.27Q103.43 26.11 103.58 26.29L103.58 26.29Q103.68 26.44 103.97 26.56Q104.26 26.69 104.51 26.76L104.51 26.76Q105.02 27.01 105.07 27.68Q105.12 28.34 104.55 28.70L104.55 28.70Q104.01 29.03 103.41 29.10Q102.82 29.17 102.21 29.14ZM106.78 29.24L106.78 29.24Q106.64 28.96 106.15 28.67Q105.66 28.38 105.66 28.24L105.66 28.24Q105.66 28.09 105.50 27.79Q105.34 27.48 105.20 27.34L105.20 27.34Q105.02 27.12 105.30 26.27Q105.59 25.43 106.17 24.20Q106.74 22.98 107.43 21.72L107.43 21.72Q107.72 21.43 108.00 20.96Q108.29 20.50 108.44 20.35L108.44 20.35Q108.44 20.21 108.54 20.08Q108.65 19.96 108.80 19.96L108.80 19.96L109.08 19.38Q109.16 19.24 109.53 18.80Q109.91 18.37 110.45 17.85Q110.99 17.33 111.55 16.86Q112.11 16.39 112.47 16.18L112.47 16.18Q113.22 15.67 114.03 15.71Q114.84 15.74 115.42 16.21L115.42 16.21Q115.53 16.32 115.91 16.64Q116.28 16.97 116.77 17.36Q117.26 17.76 117.62 18.08L117.62 18.08L118.95 19.27L118.34 21.07Q117.87 22.51 118.08 23.59Q118.30 24.67 118.77 25.46L118.77 25.46Q119.13 26.22 120.06 26.36L120.06 26.36Q120.35 26.40 120.60 26.58Q120.86 26.76 120.86 27.16L120.86 27.16Q120.86 28.02 120.55 28.40Q120.24 28.78 119.88 28.85L119.88 28.85Q118.70 28.99 117.62 28.60Q116.54 28.20 115.67 26.54L115.67 26.54Q115.53 26.33 115.29 25.73Q115.06 25.14 115.02 24.96L115.02 24.96Q114.88 25.14 114.65 25.41Q114.41 25.68 114.20 25.90L114.20 25.90Q111.64 28.49 109.82 29.26Q108.00 30.04 106.78 29.24ZM108.76 26.26L108.76 26.26Q109.01 26.29 109.55 25.99Q110.09 25.68 110.99 24.96L110.99 24.96Q112.22 23.92 113.01 23.23Q113.80 22.55 114.56 21.47L114.56 21.47L115.35 20.17Q114.99 19.34 114.70 19.09Q114.41 18.84 114.12 18.84L114.12 18.84Q113.40 18.84 112.31 20.15Q111.21 21.47 109.73 23.99L109.73 23.99Q109.26 24.78 109.01 25.52Q108.76 26.26 108.76 26.26ZM122.66 29.03L122.66 29.03Q122.33 28.78 121.95 28.38Q121.58 27.98 121.68 27.26L121.68 27.26Q121.79 26.26 121.97 25.48Q122.15 24.71 122.40 23.70L122.40 23.70Q122.48 23.27 122.78 22.22Q123.09 21.18 123.52 19.96Q123.95 18.73 124.42 17.63Q124.89 16.54 125.25 16.00L125.25 16.00Q125.64 15.64 126.42 15.64Q127.19 15.64 127.48 15.92L127.48 15.92Q127.88 16.25 127.73 17.06Q127.59 17.87 126.72 19.56L126.72 19.56Q126.54 19.99 126.27 20.48Q126.00 20.96 125.90 21.27Q125.79 21.58 125.97 21.54L125.97 21.54Q126.18 21.14 126.76 20.62Q127.34 20.10 127.98 19.60Q128.63 19.09 129.21 18.70Q129.78 18.30 130 18.19L130 18.19Q130.29 18.01 130.67 17.89Q131.04 17.76 131.19 17.69L131.19 17.69Q132.02 17.29 133.01 17.38Q134.00 17.47 134.21 18.01L134.21 18.01Q134.25 18.30 134.45 18.44Q134.64 18.59 134.64 18.59L134.64 18.59Q134.79 18.59 134.81 18.70Q134.82 18.80 134.82 18.80L134.82 18.80Q134.82 19.06 134.34 19.52Q133.85 19.99 133.28 20.03L133.28 20.03Q132.81 20.06 132.45 20.21Q132.09 20.35 131.58 20.57L131.58 20.57Q130.22 21.36 129.12 21.97Q128.02 22.58 126.87 23.84L126.87 23.84Q126.62 24.13 126.33 24.38Q126.04 24.64 125.75 25.10L125.75 25.10Q125.57 25.28 125.39 25.90Q125.21 26.51 125.09 27.07Q124.96 27.62 124.96 27.73L124.96 27.73Q124.96 27.73 124.85 28.07Q124.74 28.42 124.49 28.74L124.49 28.74Q124.06 29.32 123.65 29.46Q123.23 29.60 122.66 29.03Z" fill="#FFFFFF"></path>
<path d="M138.16 28.13L138.16 28.13Q137.41 28.38 136.90 28.36Q136.40 28.34 135.79 27.91L135.79 27.91Q135.07 27.19 135.30 26.45Q135.54 25.72 136.58 25.00L136.58 25.00Q137.30 24.56 137.64 24.55Q137.98 24.53 138.67 24.82L138.67 24.82Q139.89 25.57 139.75 26.49Q139.60 27.41 138.16 28.13Z" fill="#FFFFFF"></path>
<path d="M5 35 C 50 32, 110 38, 131.332 33" stroke="#FFFFFF" stroke-width="2.4" stroke-linecap="round" fill="none"></path>
</svg>